<svg width="800px" height="800px" viewBox="5 8 22 16" fill="none" xmlns="http://www.w3.org/2000/svg">
<path d="M19.7 18.9c1.1 0 1.9-.9 1.9-2.1.1-1.2-.8-2.1-1.9-2.1-1.2 0-2 .9-2 2.1s.9 2.1 2 2.1Zm-7.4 0c1.2 0 2-.9 2-2.1 0-1.2-.8-2.1-2-2.1-1.1 0-1.9.9-1.9 2.1s.9 2.1 1.9 2.1ZM23.6 9.3c2.5 3.5 3.8 7.5 3.3 12-1.9 1.4-3.7 2.2-5.6 2.7-.4-.6-.8-1.2-1.2-1.8.7-.3 1.3-.6 1.9-.9-.1-.1-.3-.2-.4-.3-3.6 1.5-7.5 1.5-11.2 0-.1.1-.3.2-.4.3.6.3 1.2.6 1.9.9-.4.6-.8 1.2-1.2 1.8-1.9-.5-3.7-1.3-5.6-2.7-.4-3.9.4-7.9 3.3-12 1.4-.6 2.9-1 4.5-1.3.2.3.4.8.6 1.1 1.6-.2 3.3-.2 5 0 .2-.3.4-.8.6-1.1 1.6.3 3.1.7 4.5 1.3Z" fill="#5865F2"/>
</svg>