<svg width="800px" height="800px" viewBox="-3 0 262 262" xmlns="http://www.w3.org/2000/svg" preserveAspectRatio="xMidYMid"><path d="M255.9 133.5c0-10.7-.9-18.6-2.8-26.7H130.6v48.4h71.9c-1.4 12-9.3 30.2-26.7 42.4l-.2 1.6 38.8 30 2.7.3c24.7-22.8 38.9-56.3 38.9-96" fill="#4285F4"/><path d="M130.6 261.1c35.2 0 64.8-11.6 86.5-31.6l-41.2-31.9c-11 7.7-25.8 13.1-45.3 13.1-34.5 0-63.8-22.8-74.3-54.3l-1.5.1-40.3 31.2-.5 1.5c21.4 42.6 65.5 71.9 116.6 71.9" fill="#34A853"/><path d="M56.3 156.4 13.9 189.2C5.1 171.5 0 151.7 0 130.6s5.1-41 14-58.7l1.3-.6L56 103.1l.1 1.7c-2.6 8.1-4.2 16.8-4.2 25.8s1.6 17.7 4.4 25.8" fill="#FBBC05"/><path d="M130.6 50.5c24.5 0 41 10.6 50.5 19.4l36.8-36C195.2 12.9 165.8 0 130.6 0 79.5 0 35.4 29.3 13.9 71.9l42.2 32.8C66.7 73.2 96 50.4 130.5 50.4" fill="#EB4335"/></svg>